<?xml version="1.0" encoding="UTF-8" standalone="no"?>
<!-- Created with Inkscape (http://www.inkscape.org/) -->

<svg
   width="1844.4087mm"
   height="1427.4078mm"
   viewBox="0 0 1844.4087 1427.4078"
   version="1.1"
   id="svg5"
   xml:space="preserve"
   inkscape:export-filename="../../doc5.png"
   inkscape:export-xdpi="8.5328121"
   inkscape:export-ydpi="8.5328121"
   inkscape:version="1.2.2 (b0a8486541, 2022-12-01)"
   sodipodi:docname="doc5.svg"
   xmlns:inkscape="http://www.inkscape.org/namespaces/inkscape"
   xmlns:sodipodi="http://sodipodi.sourceforge.net/DTD/sodipodi-0.dtd"
   xmlns:xlink="http://www.w3.org/1999/xlink"
   xmlns="http://www.w3.org/2000/svg"
   xmlns:svg="http://www.w3.org/2000/svg"><sodipodi:namedview
     id="namedview7"
     pagecolor="#ffffff"
     bordercolor="#000000"
     borderopacity="0.25"
     inkscape:showpageshadow="2"
     inkscape:pageopacity="0.0"
     inkscape:pagecheckerboard="0"
     inkscape:deskcolor="#d1d1d1"
     inkscape:document-units="mm"
     showgrid="false"
     inkscape:zoom="0.088662391"
     inkscape:cx="3676.869"
     inkscape:cy="4128.0186"
     inkscape:window-width="1366"
     inkscape:window-height="682"
     inkscape:window-x="0"
     inkscape:window-y="29"
     inkscape:window-maximized="1"
     inkscape:current-layer="layer1" /><defs
     id="defs2"><rect
       x="9488.5225"
       y="7716.665"
       width="3658.3452"
       height="2514.2556"
       id="rect31911" /><rect
       x="6416.8516"
       y="7061.8271"
       width="4948.0488"
       height="1573.1388"
       id="rect30205" /><linearGradient
       inkscape:collect="always"
       id="linearGradient17837"><stop
         style="stop-color:#636f1b;stop-opacity:1;"
         offset="0"
         id="stop17833" /><stop
         style="stop-color:#000000;stop-opacity:1;"
         offset="1"
         id="stop17835" /></linearGradient><rect
       x="6527.2471"
       y="6295.9028"
       width="3363.9463"
       height="658.19324"
       id="rect13893" /><linearGradient
       id="swatch6"
       inkscape:swatch="solid"><stop
         style="stop-color:#000000;stop-opacity:1;"
         offset="0"
         id="stop6" /></linearGradient><clipPath
       clipPathUnits="userSpaceOnUse"
       id="clipPath910"><rect
         style="fill:#636f1b;fill-opacity:1;stroke:#353d01;stroke-width:1.03912;stroke-opacity:0.939894"
         id="rect912"
         width="1783.9646"
         height="1426.3689"
         x="730.32129"
         y="1449.2379" /></clipPath><clipPath
       clipPathUnits="userSpaceOnUse"
       id="clipPath906"><rect
         style="fill:#636f1b;fill-opacity:1;stroke:#353d01;stroke-width:1.03912;stroke-opacity:0.939894"
         id="rect908"
         width="1783.9646"
         height="1426.3689"
         x="730.32129"
         y="1449.2379" /></clipPath><clipPath
       clipPathUnits="userSpaceOnUse"
       id="clipPath902"><rect
         style="fill:#636f1b;fill-opacity:1;stroke:#353d01;stroke-width:1.03912;stroke-opacity:0.939894"
         id="rect904"
         width="1783.9646"
         height="1426.3689"
         x="730.32129"
         y="1449.2379" /></clipPath><clipPath
       clipPathUnits="userSpaceOnUse"
       id="clipPath898"><rect
         style="fill:#636f1b;fill-opacity:1;stroke:#353d01;stroke-width:1.03912;stroke-opacity:0.939894"
         id="rect900"
         width="1783.9646"
         height="1426.3689"
         x="730.32129"
         y="1449.2379" /></clipPath><clipPath
       id="clip15-2"><path
         d="m 104,170 h 93 v 22 h -93 z m 0,0"
         id="path139-7" /></clipPath><clipPath
       id="clip16-0"><path
         d="m 192.51172,147.45703 -6.47266,1.98047 c -3.14453,0.96094 -5.36719,3.75781 -5.60156,7.03516 l -0.48828,3.88281 -2.50391,-2.44922 c -1.09765,-1.07422 -2.57422,-1.67578 -4.10937,-1.67578 h -14.78907 c -5.54687,-0.6836 -7.48437,-7.12891 -21.40234,-7.12891 -13.92187,0 -14.26953,7.12891 -14.26953,7.12891 h -7.13672 c -7.13281,0 -7.13281,7.13281 -7.13281,7.13281 v 3.5 h -1.85156 v -9.70703 c 0,-0.51172 -0.41797,-0.92578 -0.92969,-0.92578 -0.51172,0 -0.92578,0.41406 -0.92578,0.92578 v 26.67578 c 0,0.51172 0.41406,0.92578 0.92578,0.92578 0.51172,0 0.92578,-0.41406 0.92969,-0.92578 v -9.70312 h 1.85156 v 3.49609 c 0,0 0,7.13281 7.13281,7.13281 3.03516,0 6.3711,0.0508 9.90625,0.0937 -1.58594,0.36328 -2.76953,1.77735 -2.76953,3.47266 0,1.96875 1.59766,3.5625 3.56641,3.5625 1.96875,0 3.5664,-1.59375 3.5664,-3.5625 0,-1.66797 -1.14453,-3.0625 -2.6914,-3.45313 29.64062,0.31641 71.72265,-0.5625 68.91796,-35.76953 -0.0156,-0.18359 -0.14843,-0.41406 -0.33984,-0.64844 -0.59766,-0.74218 -1.5,-1.13671 -2.42969,-1.13671 -0.3164,0 -0.64062,0.0469 -0.95312,0.14062"
         id="path140-9" /></clipPath><clipPath
       id="clip17-3"><rect
         x="0"
         y="0"
         width="93"
         height="22"
         id="rect142-6" /></clipPath><clipPath
       id="clip18-0"><path
         d="M 0.105469,0.496094 H 92.3125 V 22 H 0.105469 Z m 0,0"
         id="path141-6" /></clipPath><clipPath
       id="clip19-2"><path
         d="m 88.511719,-22.542969 -6.472657,1.980469 c -3.144531,0.960938 -5.367187,3.757812 -5.601562,7.035156 l -0.488281,3.882813 -2.503907,-2.449219 c -1.097656,-1.074219 -2.574218,-1.675781 -4.109374,-1.675781 H 54.546875 C 49,-14.453125 47.0625,-20.898438 33.144531,-20.898438 c -13.921875,0 -14.269531,7.128907 -14.269531,7.128907 h -7.136719 c -7.132812,0 -7.132812,7.132812 -7.132812,7.132812 v 3.5 H 2.753906 v -9.707031 c 0,-0.511719 -0.417968,-0.925781 -0.929687,-0.925781 -0.511719,0 -0.925781,0.414062 -0.925781,0.925781 v 26.675781 c 0,0.511719 0.414062,0.925781 0.925781,0.925781 0.511719,0 0.925781,-0.414062 0.929687,-0.925781 V 4.128906 H 4.605469 V 7.625 c 0,0 0,7.132812 7.132812,7.132812 3.035157,0 6.371094,0.05078 9.90625,0.09375 -1.585937,0.363282 -2.769531,1.777344 -2.769531,3.472657 0,1.96875 1.597656,3.5625 3.566406,3.5625 1.96875,0 3.566406,-1.59375 3.566406,-3.5625 0,-1.667969 -1.144531,-3.0625 -2.691406,-3.453125 29.640625,0.316406 71.722656,-0.5625 68.917969,-35.769532 -0.01563,-0.183593 -0.148437,-0.414062 -0.339844,-0.648437 -0.597656,-0.742187 -1.5,-1.136719 -2.429687,-1.136719 -0.316406,0 -0.640625,0.04687 -0.953125,0.140625"
         id="path142-6" /></clipPath><rect
       x="2523.8704"
       y="-386.54648"
       width="117.04044"
       height="123.61613"
       id="rect8-1" /><rect
       x="2484.4636"
       y="-597.20386"
       width="194.24664"
       height="291.15598"
       id="rect9-8" /><rect
       x="1403.4932"
       y="-752.99896"
       width="705.7168"
       height="264.60123"
       id="rect4439-7" /><rect
       x="1017.0025"
       y="1632.9622"
       width="2487.7812"
       height="781.90112"
       id="rect5833-9" /><linearGradient
       inkscape:collect="always"
       xlink:href="#linearGradient17837"
       id="linearGradient17839"
       x1="729.80176"
       y1="2162.4224"
       x2="2514.8054"
       y2="2162.4224"
       gradientUnits="userSpaceOnUse"
       gradientTransform="matrix(1.0332899,0,0,0.99998798,-20.99643,0.02599713)" /></defs><g
     inkscape:label="Capa 1"
     inkscape:groupmode="layer"
     id="layer1"
     transform="translate(-733.10907,-1448.7182)"><rect
       style="fill:url(#linearGradient17839);fill-opacity:1;stroke:#353d01;stroke-width:1.05626;stroke-opacity:0.939894"
       id="rect234-3"
       width="1843.3525"
       height="1426.3517"
       x="733.63721"
       y="1449.2465"
       inkscape:export-filename="./doc5.svg"
       inkscape:export-xdpi="8.5328121"
       inkscape:export-ydpi="8.5328121" /><path
       fill="#d70751"
       d="m 2488.1528,2314.8385 c 1.0396,27.9117 -8.1452,41.4747 -16.4515,65.4584 l -14.9382,7.4277 c -12.2106,23.7297 1.213,15.0652 -7.532,33.9314 -19.0851,16.9482 -57.8335,53.0155 -70.2413,56.32 -9.0692,-0.1962 6.1343,-10.6982 8.1215,-14.7988 -25.5207,17.5139 -20.4828,26.2941 -59.5202,36.9573 l -1.1325,-2.5532 c -96.2349,45.2874 -229.9246,-44.4436 -228.1686,-166.858 -1.022,7.7634 -2.9225,5.8225 -5.0481,8.9422 -4.9688,-62.9745 29.0896,-126.2268 86.5308,-152.0933 56.1806,-27.7961 122.0436,-16.4052 162.2589,21.1302 -22.0892,-28.9513 -66.0933,-59.6473 -118.2085,-56.8053 -51.0746,0.8362 -98.8694,33.2841 -114.8121,68.5318 -26.1557,16.4628 -29.2051,63.4938 -40.5961,72.1128 -15.3542,112.7557 28.8469,161.4506 103.6286,218.7648 11.7378,7.9243 3.3045,9.1374 4.8746,15.1683 -24.8383,-11.6221 -47.5738,-29.1825 -66.2894,-50.6822 9.9355,14.5221 20.645,28.6395 34.4961,39.73 -23.4406,-7.914 -54.7373,-56.7587 -63.852,-58.7459 40.3774,72.2976 163.7962,126.7924 228.4575,99.7469 -29.9217,1.1097 -67.9195,0.609 -101.5153,-11.807 -14.1515,-7.2668 -33.3182,-22.2968 -29.8867,-25.1038 88.2177,32.9372 179.3228,24.9303 255.6415,-36.2417 19.432,-15.1343 40.6426,-40.8626 46.7769,-41.2084 -9.2303,13.8861 1.5827,6.6772 -5.5106,18.9343 19.3163,-31.2038 -8.422,-12.7082 19.9863,-53.8825 l 10.4897,14.4415 c -3.927,-25.9245 32.1753,-57.372 28.5013,-98.3378 8.2835,-12.5234 9.2312,13.494 0.4542,42.3069 12.1889,-31.9669 3.224,-37.1079 6.3427,-63.4949 3.3624,8.8732 7.8335,18.2882 10.1088,27.6578 -7.9481,-30.9045 8.1215,-52.0223 12.1188,-69.9873 -3.9508,-1.7333 -12.2571,13.655 -14.1753,-22.8285 0.2892,-15.8507 4.4247,-8.3063 6.0073,-12.2117 -3.096,-1.7899 -11.264,-13.9439 -16.2192,-37.2461 3.5698,-5.487 9.6111,14.1989 14.5096,14.9958 -3.1538,-18.5193 -8.5716,-32.6481 -8.8028,-46.8698 -14.326,-29.9227 -5.072,3.9973 -16.6705,-12.8475 -15.2498,-47.5275 12.6381,-11.0328 14.5335,-32.6131 23.0823,33.4451 36.2408,85.3178 42.3058,106.7948 -4.6208,-26.1907 -12.0723,-51.5722 -21.188,-76.1226 7.0365,2.969 -11.3095,-53.8702 9.1385,-16.2316 -21.823,-80.2345 -93.3237,-155.2121 -159.1166,-190.3793 8.0286,7.3597 18.1838,16.6013 14.5561,18.057 -32.741,-19.4662 -26.9876,-21.0023 -31.6776,-29.2281 -26.6295,-10.8479 -28.4083,0.8879 -46.0265,0 -50.2548,-26.6635 -59.9363,-23.8328 -106.1825,-40.5157 l 2.1028,9.8435 c -33.2841,-11.0915 -38.7835,4.182 -74.7475,0 -2.1834,-1.6982 11.5304,-6.1921 22.8285,-7.8211 -32.1857,4.2513 -30.6836,-6.3542 -62.1766,1.1666 7.752,-5.4416 15.9767,-9.0578 24.249,-13.6787 -26.2363,1.5939 -62.6628,15.2726 -51.4215,2.8194 -42.8035,19.1078 -118.8331,45.9221 -161.4971,85.9298 l -1.34,-8.9648 c -19.5477,23.4633 -85.2486,70.0791 -90.4827,100.4974 l -5.2329,1.213 c -10.1552,17.2259 -16.7521,36.7384 -24.8157,54.4494 -13.2977,22.6776 -19.5012,8.7336 -17.6067,12.2922 -26.1671,53.0505 -39.1871,97.6213 -50.4046,134.1976 7.9945,11.9566 0.1961,71.9973 3.2116,120.0449 -13.1243,237.342 166.569,467.7631 362.9906,520.953 28.7892,10.3163 71.5927,9.9467 108.0068,10.9636 -42.9531,-12.2922 -48.4988,-6.5038 -90.366,-21.0951 -30.188,-14.2341 -36.7961,-30.4657 -58.1916,-49.0305 l 8.4683,14.9608 c -41.9372,-14.8452 -24.3882,-18.3687 -58.5157,-29.1712 l 9.0464,-11.7957 c -13.598,-1.0395 -36.0105,-22.8975 -42.1333,-35.0391 l -14.8804,0.5885 c -17.8606,-22.019 -27.3914,-37.9275 -26.6863,-50.2549 l -4.8066,8.5727 c -5.4416,-9.3459 -65.7474,-82.6956 -34.462,-65.6205 -5.8111,-5.2908 -13.5404,-8.6294 -21.9159,-23.868 l 6.3655,-7.2668 c -15.03,-19.374 -27.7031,-44.2011 -26.7326,-52.4723 8.0285,10.8365 13.597,12.8693 19.1201,14.7295 -38.0205,-94.3177 -40.1585,-5.1875 -68.9363,-96.0045 l 6.0763,-0.4853 c -4.6558,-7.0582 -7.5093,-14.6717 -11.2516,-22.1697 l 2.6563,-26.3983 c -27.3563,-31.6085 -7.6477,-134.5321 -3.6845,-190.9677 2.7141,-22.944 22.8398,-47.3788 38.1238,-85.6997 l -9.3118,-1.5939 c 17.8152,-31.0543 101.6887,-124.7598 140.5527,-119.9533 18.8187,-23.6377 -3.7434,-0.1027 -7.4289,-6.031 41.3479,-42.7796 54.3441,-30.222 82.2445,-37.9275 30.0725,-17.8493 -25.8202,6.9777 -11.5644,-6.8043 52.0223,-13.275 36.8539,-30.1993 104.7032,-36.9345 7.1635,4.0665 -16.6012,6.284 -22.562,11.5645 43.3227,-21.2118 137.1201,-16.371 198.0733,11.7605 70.6687,33.0529 150.1175,130.7083 153.26,222.5886 l 3.5698,0.9601 c -1.8024,36.5298 5.5913,78.7788 -7.244,117.5726 l 8.677,-18.38"
       id="path2055"
       style="fill:#ffffff;fill-opacity:0.290003;stroke:none;stroke-width:11.5528" /><path
       style="fill:#2d320c;fill-opacity:1;stroke:none;stroke-width:0.926042"
       d="M 190.69478,2273.3568 957.09891,1064.525 723.69329,3069.0445 Z"
       id="path1000-3"
       clip-path="url(#clipPath910)"
       transform="matrix(0.99977715,0,0,1.0007823,-0.4796457,-1.7194646)" /><path
       style="fill:#889824;fill-opacity:1;stroke:none;stroke-width:0.926042"
       d="M 934.27957,1103.4206 662.14302,3174.6403 1023.2471,3301.1678 Z"
       id="path1272-5"
       clip-path="url(#clipPath906)"
       transform="matrix(0.99977715,0,0,1.0007823,-0.4796457,-1.7194646)" /><path
       style="fill:#66721b;fill-opacity:1;stroke:none;stroke-width:0.926042"
       d="m 907.96418,1108.1078 c 39.28342,68.0417 73.99669,2439.7618 73.99669,2439.7618 l 535.06573,-39.2611 z"
       id="path1436-6"
       sodipodi:nodetypes="cccc"
       clip-path="url(#clipPath902)"
       transform="matrix(0.99977715,0,0,1.0007823,-0.4796457,-1.7194646)" /><path
       style="fill:#75831f;fill-opacity:1;stroke:none;stroke-width:0.926042"
       d="M 936.79124,1215.5551 1501.4631,3496.753 1931.1648,3167.3597 Z"
       id="path1539-2"
       clip-path="url(#clipPath898)"
       transform="matrix(0.99977715,0,0,1.0007823,-0.4796457,-1.7194646)" /><path
       fill="#d70751"
       d="m 2247.9338,2415.1511 c -17.26,0.2272 3.2467,8.8731 25.786,12.3501 6.2498,-4.8747 11.8648,-9.7733 16.9017,-14.5562 -14.0132,3.4315 -28.2927,3.5122 -42.6877,2.2061 m 92.6195,-23.0936 c 10.3163,-14.198 17.8028,-29.7257 20.4488,-45.7838 -2.3228,11.4373 -8.5035,21.315 -14.3723,31.7581 -32.2674,20.322 -3.0497,-12.0608 0,-24.3871 -34.682,43.7036 -4.783,26.2011 -6.0539,38.4128 m 34.2308,-89.0033 c 2.1029,-31.0883 -6.1115,-21.2458 -8.8719,-9.4037 3.2115,1.6869 5.7646,21.9272 8.8719,9.4037 m -192.3314,-424.9019 c 9.219,1.6405 19.9172,2.9113 18.381,5.1175 10.1202,-2.2288 12.3955,-4.2399 -18.381,-5.1175 m 18.3924,5.1175 -6.4811,1.3523 6.0413,-0.5575 0.444,-0.7948"
       id="path2053"
       style="fill:#ffffff;fill-opacity:0.290003;stroke:none;stroke-width:11.5528" /><path
       style="fill:#ababab;fill-opacity:1;fill-rule:nonzero;stroke:none;stroke-width:1.35457"
       d="m 851.84457,1587.2881 c 0,2.6669 -2.16415,4.8309 -4.83095,4.8309 -2.66686,0 -4.83105,-2.164 -4.83105,-4.8309 0,-2.6669 2.16419,-4.831 4.83105,-4.831 2.6668,0 4.83095,2.1641 4.83095,4.831"
       id="path167" /><path
       style="fill:#afafaf;fill-opacity:1;fill-rule:nonzero;stroke:none;stroke-width:1.35457"
       d="m 832.52068,1543.8148 c -9.66724,0 -9.66724,9.6619 -9.66724,9.6619 v 19.3185 c 0,0 0,9.6619 9.66724,9.6619 z m 0,0"
       id="path168" /><path
       style="fill:#ffffff;fill-opacity:1;fill-rule:nonzero;stroke:none;stroke-width:1.35457"
       d="m 832.52068,1543.8148 h 78.01495 c 2.07948,0 4.07954,0.8148 5.56635,2.27 l 3.39179,3.3176 0.66133,-5.2649 c 0.31752,-4.434 3.32837,-8.2173 7.58785,-9.5243 l 8.7624,-2.6774 c 1.66147,-0.5132 3.49756,-0.01 4.58749,1.344 0.25933,0.3228 0.43924,0.6297 0.46037,0.8783 4.32839,54.3787 -70.37958,48.299 -109.03253,48.299 z m 0,0"
       id="path169" /><path
       style="fill:#b4b4b4;fill-opacity:1;fill-rule:nonzero;stroke:none;stroke-width:1.35457"
       d="m 890.50276,1543.8148 c -7.51363,-0.926 -10.13813,-9.6567 -28.99101,-9.6567 -18.85818,0 -19.32918,9.6567 -19.32918,9.6567 z m 0,0"
       id="path170" /><path
       style="fill:#5b5b5b;fill-opacity:1;fill-rule:nonzero;stroke:none;stroke-width:1.35457"
       d="m 820.34543,1558.2123 h 2.50801 v 9.8472 h -2.50801 z m 0,0"
       id="path171" /><path
       style="fill:#b8b8b8;fill-opacity:1;fill-rule:nonzero;stroke:none;stroke-width:1.35457"
       d="m 819.08607,1582.4571 c 0.69315,0 1.25936,-0.5608 1.25936,-1.254 v -36.129 c 0,-0.6931 -0.56621,-1.2593 -1.25936,-1.2593 -0.69311,0 -1.25401,0.5662 -1.25401,1.2593 v 36.129 c 0,0.6932 0.5609,1.254 1.25401,1.254"
       id="path172" /><path
       style="fill:#eaeaea;fill-opacity:1;fill-rule:nonzero;stroke:none;stroke-width:1.35457"
       d="m 885.67176,1572.7952 h -38.65814 c -2.66686,0 -4.83105,-2.1641 -4.83105,-4.8309 0,-2.6669 2.16419,-4.8257 4.83105,-4.8257 h 38.65814 c 2.66686,0 4.831,2.1588 4.831,4.8257 0,2.6668 -2.16414,4.8309 -4.831,4.8309"
       id="path173" /><path
       style="fill:#94ae45;fill-opacity:1;fill-rule:nonzero;stroke:none;stroke-width:1.35457"
       d="m 817.83206,1545.0741 h 2.51337 v 2.8943 h -2.51337 z m 0,0"
       id="path174" /><path
       style="fill:#919191;fill-opacity:1;fill-rule:nonzero;stroke:none;stroke-width:1.35457"
       d="m 817.83206,1578.3035 h 2.51337 v 2.8996 h -2.51337 z m 0,0"
       id="path175" /><g
       clip-path="url(#clip15-2)"
       clip-rule="nonzero"
       id="g176"
       transform="matrix(1.3545728,0,0,1.3545728,675.73943,1332.1892)"
       style="opacity:0.163"><g
         clip-path="url(#clip16-0)"
         clip-rule="nonzero"
         id="g175"><g
           id="use175"
           clip-path="url(#clip17-3)"
           transform="translate(104,170)"><g
             clip-path="url(#clip18-0)"
             clip-rule="nonzero"
             id="g6"><g
               clip-path="url(#clip19-2)"
               clip-rule="nonzero"
               id="g5"><path
                 style="fill:#000000;fill-opacity:1;fill-rule:nonzero;stroke:none"
                 d="M 0.105469,0.496094 H 92.3125 V 24.003906 H 0.105469 Z m 0,0"
                 id="path3" /></g></g></g></g></g><text
       xml:space="preserve"
       style="font-size:57.9786px;line-height:1.5;font-family:robot;-inkscape-font-specification:robot;text-align:center;letter-spacing:2.9187px;text-anchor:middle;fill:#fefefe;fill-opacity:1;stroke-width:30.2405;stroke-linecap:round;stroke-linejoin:round;paint-order:markers stroke fill"
       x="1081.0413"
       y="1580.3954"
       id="text177"><tspan
         sodipodi:role="line"
         id="tspan177"
         style="font-style:normal;font-variant:normal;font-weight:normal;font-stretch:normal;font-family:Roboto;-inkscape-font-specification:Roboto;letter-spacing:2.9187px;fill:#fefefe;fill-opacity:1;stroke-width:30.2405"
         x="1082.5006"
         y="1580.3954">Cuerd<tspan
   style="font-style:normal;font-variant:normal;font-weight:normal;font-stretch:normal;font-family:'Roboto thin';-inkscape-font-specification:'Roboto thin, ';letter-spacing:2.9187px;fill:#fefefe;fill-opacity:1;stroke-width:30.2405"
   id="tspan178">OS</tspan></tspan></text><g
       inkscape:label="Capa 1"
       id="layer1-36"
       transform="matrix(0.24105555,0,0,0.24105555,2102.503,3406.088)"><text
         xml:space="preserve"
         id="text7"
         style="font-size:10.6667px;font-family:RaviPrakash;-inkscape-font-specification:RaviPrakash;white-space:pre;shape-inside:url(#rect8-1);display:inline;opacity:1;fill:none;fill-opacity:0.998239;stroke:#ffffff;stroke-width:45.03;stroke-opacity:1" /><text
         xml:space="preserve"
         id="text8"
         style="font-size:10.6667px;font-family:RaviPrakash;-inkscape-font-specification:RaviPrakash;white-space:pre;shape-inside:url(#rect9-8);display:inline;opacity:1;fill:none;fill-opacity:0.998239;stroke:#ffffff;stroke-width:45.03;stroke-opacity:1" /><text
         xml:space="preserve"
         id="text4437"
         style="font-style:normal;font-variant:normal;font-weight:normal;font-stretch:normal;font-size:74.6667px;font-family:Ubuntu;-inkscape-font-specification:Ubuntu;white-space:pre;shape-inside:url(#rect4439-7);opacity:1;fill:#ffffff;fill-opacity:1;fill-rule:evenodd;stroke:none;stroke-width:4.5;stroke-dasharray:none;stroke-opacity:1" /><text
         xml:space="preserve"
         id="text5831"
         style="font-size:85.3333px;font-family:Ubuntu;-inkscape-font-specification:Ubuntu;text-align:start;white-space:pre;shape-inside:url(#rect5833-9);display:inline;fill:#fffffe;fill-opacity:1;stroke:#ffffff;stroke-width:2.88;stroke-opacity:1"
         transform="matrix(1.4832739,0,0,1.4832739,-3122.8342,-5472.6013)"><tspan
           x="1017.002"
           y="1712.5355"
           id="tspan524">  
</tspan><tspan
           x="1017.002"
           y="1819.2022"
           id="tspan528"><tspan
             dx="0 0 0 0 0 0 0 0 0 0 0 0 0 0 0 0 0 0 0 0 0 0 0 0 0 0 0 0 0 0 0 0 0 0 0 0 0 0 0 0 0 0 0 0.00018310547 0 0 0.00018310547"
             style="font-family:monospace;-inkscape-font-specification:monospace"
             id="tspan526">____________________________________________  
</tspan></tspan><tspan
           x="1017.002"
           y="1927.7987"
           id="tspan532"><tspan
             dx="0 0 0 0 0 0 0 0 0 0 0 0 0 0 0 0 0 0 0 0 0 0 0 0 0 0 0 0 0 0 0 0 0 0 0 0 0 0 0 0 0 0 0 0.00018310547 0 0 0.00018310547"
             style="font-family:monospace;-inkscape-font-specification:monospace"
             id="tspan530">|     Optimizado hasta el último pixel     |   
</tspan></tspan><tspan
           x="1017.002"
           y="2036.3953"
           id="tspan538"><tspan
             dx="0 0 0 0 0 0 0 0 0 0 0 0 0 0 0 0 0 0 0 0 0 0 0 0 0 0 0 0 0 0 0 0 0 0 0 0 0 0 0 0 0 0 0 0.00018310547"
             style="font-family:monospace;-inkscape-font-specification:monospace"
             id="tspan534">********************************************</tspan><tspan
             dx="0 0 -0.00015449524"
             id="tspan536">   </tspan></tspan></text></g><text
       xml:space="preserve"
       transform="matrix(0.80824732,0,0,0.80824732,-3623.0248,-3566.3494)"
       id="text13891"
       style="font-size:192px;line-height:92.4%;font-family:Ubuntu;-inkscape-font-specification:Ubuntu;white-space:pre;shape-inside:url(#rect13893);fill:#ffffff;fill-opacity:0.283875;fill-rule:evenodd;stroke:none;stroke-width:3.281"><tspan
         x="6527.2461"
         y="6443.6448"
         id="tspan540">Es Base </tspan></text><text
       xml:space="preserve"
       transform="matrix(0.22239021,0,0,0.22239021,-6.8286382,139.12449)"
       id="text30203"
       style="font-size:253.333px;line-height:100.4%;font-family:Ubuntu;-inkscape-font-specification:Ubuntu;text-align:end;white-space:pre;shape-inside:url(#rect30205);fill:#ffffff;fill-opacity:1;fill-rule:evenodd;stroke:none;stroke-width:3.281"
       x="4818.8999"
       y="0"><tspan
         x="7205.9327"
         y="7266.8992"
         id="tspan544"><tspan
           dx="0 0 0 0 0 0 0 0 0 0 0 0 0 0 0 0 0 0 0 0 0 0.00011444092 -0.00018310547 0 0 -0.00010681152 0.00011444092 0 -0.00010681152 0 0 0 0 -0.00012969971"
           id="tspan542">Esta distribucion es base Debian con </tspan></tspan><tspan
         x="6784.1316"
         y="7521.2454"
         id="tspan548"><tspan
           dx="0 0 0 0 0 0 0 0 0 0 0 0 0 0 0 0 0 0 0 0 -0.00010681152 0 -0.00012969971 0 0.00011444092 0 -0.00015258789 0 0.00011444092 0 -0.00010681152 0 0 0 0 0.00012969971 -0.00019836426 0.00016784668 0 -0.00019836426 0 0.00032424927"
           id="tspan546">compatibilidad a .deb y sus repositorios, </tspan></tspan><tspan
         x="6536.8806"
         y="7775.5916"
         id="tspan552"><tspan
           dx="0 0 0 0 0 0 0 0 0 0 0 0 0 0 0 0 0 0 0.00011444092 0 -0.00015258789 0 0.00011444092 0 0.0001373291 -0.00018310547 0 0 0 0.00012969971 -0.00019836426 0.00016784668 0 0 0 -0.00012969971 -0.00018310547 0 0.00016784668 0 -0.00012969971"
           id="tspan550">aunque se ofrecen sus repositorios para la </tspan></tspan><tspan
         x="9941.1688"
         y="8029.9378"
         id="tspan554">distribucion. </tspan></text><path
       fill="#d70751"
       d="m 2059.4953,2438.8354 -2.4373,12.0951 c 11.3569,15.4233 20.3682,32.1288 34.8439,44.1433 -10.4205,-20.3208 -18.1499,-28.72 -32.4066,-56.2384 m 26.8144,-1.0406 c -6.0073,-6.6545 -9.5421,-14.6491 -13.5393,-22.5972 3.8125,13.9904 11.6221,26.0174 18.8651,38.2631 l -5.3258,-15.6659 m 474.6374,-103.1661 -2.5303,6.3768 c -4.6446,33.0178 -14.7069,65.6897 -30.0951,95.9923 17.0059,-31.9668 27.9695,-66.9368 32.6254,-102.3691 m -375.0629,-464.7599 c 11.6563,-4.2627 28.6736,-2.3455 41.0814,-5.1525 -16.1511,1.3513 -32.2208,2.1607 -48.0828,4.1821 l 7.0014,0.9704 m -409.7913,217.91 c 2.6913,24.8848 -18.7156,34.5548 4.7363,18.1261 12.5927,-28.3505 -4.8985,-7.8212 -4.7363,-18.1261 m -27.5887,115.2281 c 5.4189,-16.6013 6.3892,-26.5604 8.4571,-36.184 -14.9381,19.1088 -6.8857,23.1866 -8.4571,36.184"
       id="path2057"
       style="fill:#ffffff;fill-opacity:0.290003;stroke:none;stroke-width:11.5528" /><g
       id="g31047"
       transform="matrix(3.1319963,0,0,3.1319963,2084.8221,1523.0172)"
       style="fill:#ffffff;fill-opacity:0.283875"><path
         d="m 52.22728,19.631434 c -0.04871,0.05087 -0.04871,8.124272 -0.149367,10.231643 -0.09958,1.70365 -0.251111,5.365303 -3.861891,5.365303 -3.711456,0 -4.61415,-4.263449 -4.915048,-6.117551 -0.35069,-2.056499 -0.35069,-3.763406 -0.35069,-4.513485 0,-2.408274 0.150451,-9.13087 5.817746,-9.13087 1.705813,0 2.658295,0.503301 3.410542,0.902699 l 0.04871,3.268753 z m -14.543807,5.92057 c 0,14.142234 7.523553,14.142234 8.626486,14.142234 3.109654,0 5.116366,-1.705814 5.968193,-4.663928 l 0.100659,4.462604 c 0.953566,-0.05087 1.906053,-0.150446 3.460335,-0.150446 0.552009,0 1.002274,0 1.404916,0.05087 0.401557,0 0.802035,0.0487 1.25338,0.09957 -0.802035,-1.60407 -1.403832,-5.214851 -1.403832,-13.041464 0,-7.623136 0,-20.5119858 0.651589,-24.4247502 -1.804309,0.8539865 -3.360756,1.4059953 -6.771303,1.7058138 1.354043,1.454703 1.354043,2.2069506 1.354043,8.8256344 -0.951402,-0.299814 -2.156078,-0.651584 -4.212577,-0.651584 -8.977186,0 -10.431889,7.825529 -10.431889,13.648684 m 27.199952,-2.568471 c 0.05087,-4.162791 0.903779,-7.874237 4.463698,-7.874237 3.912769,0 4.211499,4.312158 4.111924,7.874237 z m 13.540443,0.497888 c 0,-5.868604 -1.152731,-11.637634 -8.575608,-11.637634 -10.230563,0 -10.230563,11.337821 -10.230563,13.742856 0,10.180761 4.563273,14.193105 12.237275,14.193105 3.408384,0 5.06548,-0.498973 5.968179,-0.752247 -0.04979,-1.805394 0.200239,-2.959198 0.503301,-4.513481 -1.055315,0.653752 -2.409344,1.505575 -5.41833,1.505575 -7.824458,0 -7.925117,-7.124153 -7.925117,-9.58113 h 13.343447 l 0.09742,-2.9657 m 16.316738,2.173406 c 0,4.663927 -0.851823,10.934093 -6.669565,10.934093 -0.803119,0 -1.805393,-0.152615 -2.456981,-0.301982 -0.10066,-1.805393 -0.10066,-4.915038 -0.10066,-8.52582 0,-4.314336 0.450266,-6.567826 0.80312,-7.674007 1.052066,-3.559915 3.409463,-3.608618 3.859733,-3.608618 3.812105,0 4.564353,5.260311 4.564353,9.178498 z m -14.393359,5.465962 c 0,3.712526 0,5.817737 -0.601806,7.421807 2.056509,0.80312 4.61307,1.253385 7.674017,1.253385 1.95584,0 7.62313,0 10.681908,-6.268002 1.454703,-2.909406 1.95584,-6.822171 1.95584,-9.781379 0,-1.805393 -0.201318,-5.766865 -1.654942,-8.275793 -1.402755,-2.355233 -3.660578,-3.55991 -6.066688,-3.55991 -4.815463,0 -6.219299,4.012345 -6.970467,6.068844 0,-2.557636 0.04871,-11.4850189 0.449186,-16.0493668 -3.259012,1.5055749 -5.266813,1.7545215 -7.421822,1.95584 1.955854,0.8009554 1.955854,4.1140876 1.955854,14.8977308 v 12.335771 m 29.350619,8.378616 c -1.00444,-0.150446 -1.70798,-0.25111 -3.16268,-0.25111 -1.60191,0 -2.70809,0.101743 -3.85973,0.25111 0.50114,-0.953566 0.70137,-1.405995 0.85183,-4.663927 0.20131,-4.464773 0.2511,-16.40223 -0.0996,-18.910079 -0.25111,-1.907137 -0.70138,-2.206951 -1.40383,-2.708088 4.11191,-0.401562 5.26572,-0.701375 7.17069,-1.604075 -0.3994,2.204787 -0.45243,3.310969 -0.45243,6.669561 -0.0985,17.296268 -0.14937,19.157945 0.95573,21.214444 m 16.06019,-14.198527 c -0.0996,3.160526 -0.15045,5.367477 -1.00444,7.121998 -1.05314,2.257822 -2.80766,2.909411 -4.11192,2.909411 -3.01223,0 -3.66165,-2.506769 -3.66165,-4.963746 0,-4.71372 4.21366,-5.067663 6.11755,-5.067663 z m -13.79371,6.169516 c 0,3.160517 0.95357,6.31887 3.76339,7.673993 1.25339,0.552009 2.50677,0.552009 2.90941,0.552009 4.61522,0 6.16843,-3.411628 7.12199,-5.517919 -0.0509,2.206951 0,3.559915 0.15045,5.3166 0.9027,-0.05087 1.80539,-0.150451 3.31097,-0.150451 0.85183,0 1.65494,0.09958 2.50677,0.150451 -0.55201,-0.851827 -0.85183,-1.355128 -1.00444,-3.310968 -0.0996,-1.904968 -0.0996,-3.81102 -0.0996,-6.469321 l 0.0509,-10.231643 c 0,-3.813189 -1.00444,-7.574418 -8.52799,-7.574418 -4.96374,0 -7.87206,1.505575 -9.32677,2.257818 0.60288,1.104018 1.10402,2.05434 1.55429,4.213662 1.958,-1.705813 4.51564,-2.608508 7.12198,-2.608508 4.16496,0 4.16496,2.75896 4.16496,6.66956 -0.95357,-0.04871 -1.75669,-0.148287 -3.11182,-0.148287 -6.3719,0.01084 -10.58448,2.467801 -10.58448,9.189327 m 42.67887,3.051196 c 0.0509,1.705814 0.0509,3.511207 0.75225,4.96591 -1.1051,-0.09958 -1.75669,-0.25111 -3.81102,-0.25111 -1.20468,0 -1.85626,0.101743 -2.80983,0.25111 0.19915,-0.651583 0.30198,-0.902694 0.40156,-1.756685 0.15045,-1.151641 0.25111,-5.014613 0.25111,-6.369741 v -5.416175 c 0,-2.357412 0,-5.769039 -0.15262,-6.971552 -0.0996,-0.851822 -0.34852,-3.158353 -3.26009,-3.158353 -2.85853,0 -3.81102,2.105212 -4.16278,3.811026 -0.39939,1.754516 -0.39939,3.661653 -0.39939,11.083465 0.0487,6.420618 0.0487,7.02025 0.54984,8.776936 -0.85182,-0.09958 -1.90497,-0.199159 -3.40946,-0.199159 -1.20467,0 -2.00671,0.04871 -3.0079,0.199159 0.35069,-0.80312 0.55201,-1.204677 0.65159,-4.012344 0.10174,-2.758959 0.30198,-16.301571 -0.15262,-19.509716 -0.24894,-1.958004 -0.75224,-2.408269 -1.30209,-2.909406 4.06321,-0.201323 5.3653,-0.853991 6.62085,-1.503411 v 5.314432 c 0.60072,-1.556447 1.85409,-5.016783 6.87086,-5.016783 6.27016,0 6.31887,4.564354 6.36974,7.572255 v 15.075249"
         id="path2059"
         style="fill:#ffffff;fill-opacity:0.283875;stroke-width:1.08237"
         inkscape:export-filename="path2059.png"
         inkscape:export-xdpi="47.729958"
         inkscape:export-ydpi="47.729958" /><path
         fill="#d70751"
         d="m 109.13369,6.4999511 -4.15413,4.1519699 -4.15197,-4.1519699 4.15197,-4.1519656 4.15413,4.1562985"
         id="path2061"
         style="fill:#ffffff;fill-opacity:0.283875;stroke-width:1.08237" /></g><text
       xml:space="preserve"
       transform="matrix(0.26458333,0,0,0.26458333,-1727.0046,-38.737542)"
       id="text31909"
       style="font-size:253.333px;line-height:100.4%;font-family:Ubuntu;-inkscape-font-specification:Ubuntu;text-align:start;white-space:pre;shape-inside:url(#rect31911);opacity:1;fill:#ffffff;fill-opacity:1;fill-rule:evenodd;stroke:none;stroke-width:3.281"
       x="-3534.25"
       y="0"><tspan
         x="9488.5234"
         y="7921.7352"
         id="tspan558"><tspan
           dx="0 0 0 0 0 0 0 0 0 0 0.00011444092 0 0 0 0 0 0 0 0 0 -0.00010681152 0.00011444092 0 0 0 -0.00012969971 0.00012969971 -0.00019836426"
           id="tspan556">Lo vuelve compatible con todo </tspan></tspan><tspan
         x="9488.5234"
         y="8176.0813"
         id="tspan562"><tspan
           dx="0 0 0 0 0 0 0 0 0 0 0 0 0 0 0 0 0 0 0 0 -0.00012969971 0.00016784668 -0.00015258789 0.00016784668 0 0 -0.00012969971 0.00015258789 -0.00015258789 0 -0.00010681152"
           id="tspan560">lo sea estable y de facil manejo </tspan></tspan><tspan
         x="9488.5234"
         y="8430.4275"
         id="tspan566"><tspan
           dx="0 0 0 0 0 0 0 0 0 0 0 0 0 0 0 0 0 0 0 -0.00012969971 0 0 -0.00010681152"
           id="tspan564">para CuerdOS, solo que </tspan></tspan><tspan
         x="9488.5234"
         y="8684.7742"
         id="tspan570"><tspan
           dx="0 0 0 0 0 0 0 0 0 0 0 0 0 0 0 0 0 0 0 -0.00012969971 0 0 -0.00012969971 0.00011444092 0 0 0 -0.00015258789"
           id="tspan568">proporcionando con un tiling </tspan></tspan><tspan
         x="9488.5234"
         y="8939.1209"
         id="tspan574"><tspan
           dx="0 0 0 0 0 0 0 0 0 0 0 0 0 0 0 0 0 0 0 0 -0.00015258789 0 0 0 0 -0.00018310547 0 0.0001373291"
           id="tspan572">WM altamente personalizable </tspan></tspan><tspan
         x="9488.5234"
         y="9193.4676"
         id="tspan578"><tspan
           dx="0 0 0 0 0 0 0 0 0 0 0 0 0 0 0 0 0 0 0 0 0.0001373291 -0.00012969971 0 -0.00015258789 0.00016784668 -0.00015258789 0.00011444092 0 -0.00019836426"
           id="tspan576">por el equipo y Xfce para los </tspan></tspan><tspan
         x="9488.5234"
         y="9447.8143"
         id="tspan580">entuciastas.</tspan></text></g></svg>
