<?xml version="1.0" encoding="UTF-8" standalone="no"?>
<!-- Created with Inkscape (http://www.inkscape.org/) -->

<svg
   width="2048mm"
   height="2048mm"
   viewBox="0 0 2048 2048"
   version="1.1"
   id="svg5"
   xml:space="preserve"
   inkscape:version="1.2.2 (b0a8486541, 2022-12-01)"
   sodipodi:docname="welcome.svg"
   xmlns:inkscape="http://www.inkscape.org/namespaces/inkscape"
   xmlns:sodipodi="http://sodipodi.sourceforge.net/DTD/sodipodi-0.dtd"
   xmlns:xlink="http://www.w3.org/1999/xlink"
   xmlns="http://www.w3.org/2000/svg"
   xmlns:svg="http://www.w3.org/2000/svg"><sodipodi:namedview
     id="namedview7"
     pagecolor="#ffffff"
     bordercolor="#000000"
     borderopacity="0.25"
     inkscape:showpageshadow="2"
     inkscape:pageopacity="0.0"
     inkscape:pagecheckerboard="0"
     inkscape:deskcolor="#d1d1d1"
     inkscape:document-units="mm"
     showgrid="false"
     inkscape:zoom="0.044319067"
     inkscape:cx="3700.4389"
     inkscape:cy="2278.9288"
     inkscape:window-width="1366"
     inkscape:window-height="738"
     inkscape:window-x="1366"
     inkscape:window-y="0"
     inkscape:window-maximized="1"
     inkscape:current-layer="g661" /><defs
     id="defs2"><clipPath
       id="clip1"><path
         d="M 64 87 L 235 87 L 235 128 L 64 128 Z M 64 87 "
         id="path1" /></clipPath><clipPath
       id="clip2"><path
         d="M 227.488281 44.710938 L 215.433594 48.402344 C 209.585938 50.191406 205.441406 55.394531 205.007812 61.496094 L 204.097656 68.730469 L 199.433594 64.167969 C 197.386719 62.171875 194.640625 61.050781 191.78125 61.050781 L 164.238281 61.050781 C 153.910156 59.773438 150.300781 47.769531 124.378906 47.769531 C 98.457031 47.769531 97.804688 61.050781 97.804688 61.050781 L 84.519531 61.050781 C 71.234375 61.050781 71.234375 74.332031 71.234375 74.332031 L 71.234375 80.84375 L 67.78125 80.84375 L 67.78125 62.777344 C 67.78125 61.824219 67.007812 61.050781 66.054688 61.050781 C 65.101562 61.050781 64.328125 61.824219 64.328125 62.777344 L 64.328125 112.449219 C 64.328125 113.402344 65.101562 114.171875 66.054688 114.171875 C 67.007812 114.171875 67.78125 113.402344 67.78125 112.449219 L 67.78125 94.378906 L 71.234375 94.378906 L 71.234375 100.894531 C 71.234375 100.894531 71.234375 114.171875 84.519531 114.171875 C 90.167969 114.171875 96.378906 114.269531 102.960938 114.347656 C 100.011719 115.023438 97.804688 117.660156 97.804688 120.8125 C 97.804688 124.480469 100.78125 127.453125 104.449219 127.453125 C 108.117188 127.453125 111.09375 124.480469 111.09375 120.8125 C 111.09375 117.710938 108.957031 115.109375 106.078125 114.382812 C 161.277344 114.972656 239.644531 113.339844 234.425781 47.769531 C 234.398438 47.425781 234.148438 47.003906 233.792969 46.5625 C 232.679688 45.179688 231 44.445312 229.273438 44.445312 C 228.675781 44.445312 228.074219 44.535156 227.488281 44.710938 "
         id="path2" /></clipPath><filter
       id="alpha"
       filterUnits="objectBoundingBox"
       x="0"
       y="0"
       width="1"
       height="1"><feColorMatrix
         type="matrix"
         in="SourceGraphic"
         values="0 0 0 0 1 0 0 0 0 1 0 0 0 0 1 0 0 0 1 0"
         id="feColorMatrix2" /></filter><mask
       id="mask0"><g
         filter="url(#alpha)"
         id="g2"><rect
           x="0"
           y="0"
           width="299"
           height="772"
           style="fill:rgb(0%,0%,0%);fill-opacity:0.100006;stroke:none;"
           id="rect2" /></g></mask><clipPath
       id="clip4"><path
         d="M 0 0.613281 L 170.566406 0.613281 L 170.566406 41 L 0 41 Z M 0 0.613281 "
         id="path3" /></clipPath><clipPath
       id="clip5"><path
         d="M 163.488281 -42.289062 L 151.433594 -38.597656 C 145.585938 -36.808594 141.441406 -31.605469 141.007812 -25.503906 L 140.097656 -18.269531 L 135.433594 -22.832031 C 133.386719 -24.828125 130.640625 -25.949219 127.78125 -25.949219 L 100.238281 -25.949219 C 89.910156 -27.226562 86.300781 -39.230469 60.378906 -39.230469 C 34.457031 -39.230469 33.804688 -25.949219 33.804688 -25.949219 L 20.519531 -25.949219 C 7.234375 -25.949219 7.234375 -12.667969 7.234375 -12.667969 L 7.234375 -6.15625 L 3.78125 -6.15625 L 3.78125 -24.222656 C 3.78125 -25.175781 3.007812 -25.949219 2.054688 -25.949219 C 1.101562 -25.949219 0.328125 -25.175781 0.328125 -24.222656 L 0.328125 25.449219 C 0.328125 26.402344 1.101562 27.171875 2.054688 27.171875 C 3.007812 27.171875 3.78125 26.402344 3.78125 25.449219 L 3.78125 7.378906 L 7.234375 7.378906 L 7.234375 13.894531 C 7.234375 13.894531 7.234375 27.171875 20.519531 27.171875 C 26.167969 27.171875 32.378906 27.269531 38.960938 27.347656 C 36.011719 28.023438 33.804688 30.660156 33.804688 33.8125 C 33.804688 37.480469 36.78125 40.453125 40.449219 40.453125 C 44.117188 40.453125 47.09375 37.480469 47.09375 33.8125 C 47.09375 30.710938 44.957031 28.109375 42.078125 27.382812 C 97.277344 27.972656 175.644531 26.339844 170.425781 -39.230469 C 170.398438 -39.574219 170.148438 -39.996094 169.792969 -40.4375 C 168.679688 -41.820312 167 -42.554688 165.273438 -42.554688 C 164.675781 -42.554688 164.074219 -42.464844 163.488281 -42.289062 "
         id="path4" /></clipPath><clipPath
       id="clip3"><rect
         x="0"
         y="0"
         width="171"
         height="41"
         id="rect4" /></clipPath><g
       id="surface4647"
       clip-path="url(#clip3)"><g
         clip-path="url(#clip4)"
         clip-rule="nonzero"
         id="g6"><g
           clip-path="url(#clip5)"
           clip-rule="nonzero"
           id="g5"><path
             style=" stroke:none;fill-rule:nonzero;fill:rgb(0%,0%,0%);fill-opacity:1;"
             d="M -1.144531 0.613281 L 170.566406 0.613281 L 170.566406 44.394531 L -1.144531 44.394531 Z M -1.144531 0.613281 "
             id="path5" /></g></g></g><clipPath
       id="clip6"><path
         d="M 76 645 L 223 645 L 223 681 L 76 681 Z M 76 645 "
         id="path6" /></clipPath><clipPath
       id="clip7"><path
         d="M 216.671875 608.855469 L 206.289062 612.03125 C 201.25 613.574219 197.679688 618.054688 197.308594 623.308594 L 196.527344 629.542969 L 192.507812 625.613281 C 190.746094 623.890625 188.378906 622.925781 185.917969 622.925781 L 162.195312 622.925781 C 153.300781 621.828125 150.191406 611.488281 127.863281 611.488281 C 105.535156 611.488281 104.976562 622.925781 104.976562 622.925781 L 93.53125 622.925781 C 82.089844 622.925781 82.089844 634.367188 82.089844 634.367188 L 82.089844 639.976562 L 79.113281 639.976562 L 79.113281 624.519531 C 79.113281 623.730469 78.546875 623 77.761719 622.933594 C 76.878906 622.855469 76.140625 623.546875 76.140625 624.414062 L 76.140625 667.195312 C 76.140625 668.015625 76.808594 668.679688 77.628906 668.679688 C 78.449219 668.679688 79.113281 668.015625 79.113281 667.195312 L 79.113281 651.632812 L 82.089844 651.632812 L 82.089844 657.242188 C 82.089844 657.242188 82.089844 668.679688 93.53125 668.679688 C 98.398438 668.679688 103.75 668.761719 109.414062 668.832031 C 106.703125 669.453125 104.722656 671.996094 105.003906 674.953125 C 105.25 677.609375 107.390625 679.789062 110.042969 680.082031 C 113.496094 680.464844 116.417969 677.777344 116.417969 674.402344 C 116.417969 671.726562 114.578125 669.484375 112.097656 668.863281 C 159.644531 669.371094 227.140625 667.964844 222.644531 611.488281 C 222.621094 611.191406 222.40625 610.828125 222.097656 610.449219 C 221.140625 609.257812 219.695312 608.625 218.207031 608.625 C 217.695312 608.625 217.175781 608.699219 216.671875 608.855469 "
         id="path7" /></clipPath><mask
       id="mask1"><g
         filter="url(#alpha)"
         id="g7"><rect
           x="0"
           y="0"
           width="299"
           height="772"
           style="fill:rgb(0%,0%,0%);fill-opacity:0.100006;stroke:none;"
           id="rect7" /></g></mask><clipPath
       id="clip9"><path
         d="M 0 0.804688 L 146.769531 0.804688 L 146.769531 36 L 0 36 Z M 0 0.804688 "
         id="path8" /></clipPath><clipPath
       id="clip10"><path
         d="M 140.671875 -36.144531 L 130.289062 -32.96875 C 125.25 -31.425781 121.679688 -26.945312 121.308594 -21.691406 L 120.527344 -15.457031 L 116.507812 -19.386719 C 114.746094 -21.109375 112.378906 -22.074219 109.917969 -22.074219 L 86.195312 -22.074219 C 77.300781 -23.171875 74.191406 -33.511719 51.863281 -33.511719 C 29.535156 -33.511719 28.976562 -22.074219 28.976562 -22.074219 L 17.53125 -22.074219 C 6.089844 -22.074219 6.089844 -10.632812 6.089844 -10.632812 L 6.089844 -5.023438 L 3.113281 -5.023438 L 3.113281 -20.480469 C 3.113281 -21.269531 2.546875 -22 1.761719 -22.066406 C 0.878906 -22.144531 0.140625 -21.453125 0.140625 -20.585938 L 0.140625 22.195312 C 0.140625 23.015625 0.808594 23.679688 1.628906 23.679688 C 2.449219 23.679688 3.113281 23.015625 3.113281 22.195312 L 3.113281 6.632812 L 6.089844 6.632812 L 6.089844 12.242188 C 6.089844 12.242188 6.089844 23.679688 17.53125 23.679688 C 22.398438 23.679688 27.75 23.761719 33.414062 23.832031 C 30.703125 24.453125 28.722656 26.996094 29.003906 29.953125 C 29.25 32.609375 31.390625 34.789062 34.042969 35.082031 C 37.496094 35.464844 40.417969 32.777344 40.417969 29.402344 C 40.417969 26.726562 38.578125 24.484375 36.097656 23.863281 C 83.644531 24.371094 151.140625 22.964844 146.644531 -33.511719 C 146.621094 -33.808594 146.40625 -34.171875 146.097656 -34.550781 C 145.140625 -35.742188 143.695312 -36.375 142.207031 -36.375 C 141.695312 -36.375 141.175781 -36.300781 140.671875 -36.144531 "
         id="path9" /></clipPath><clipPath
       id="clip8"><rect
         x="0"
         y="0"
         width="147"
         height="36"
         id="rect9" /></clipPath><g
       id="surface4650"
       clip-path="url(#clip8)"><g
         clip-path="url(#clip9)"
         clip-rule="nonzero"
         id="g11"><g
           clip-path="url(#clip10)"
           clip-rule="nonzero"
           id="g10"><path
             style=" stroke:none;fill-rule:nonzero;fill:rgb(0%,0%,0%);fill-opacity:1;"
             d="M -1.128906 0.804688 L 146.769531 0.804688 L 146.769531 38.515625 L -1.128906 38.515625 Z M -1.128906 0.804688 "
             id="path10" /></g></g></g><clipPath
       id="clip11"><path
         d="M 62 251 L 237 251 L 237 425 L 62 425 Z M 62 251 "
         id="path11" /></clipPath><clipPath
       id="clip12"><path
         d="M 62.917969 337.984375 C 62.917969 385.78125 101.683594 424.527344 149.5 424.527344 C 197.316406 424.527344 236.082031 385.78125 236.082031 337.984375 C 236.082031 290.183594 197.316406 251.4375 149.5 251.4375 C 101.683594 251.4375 62.917969 290.183594 62.917969 337.984375 "
         id="path12" /></clipPath><linearGradient
       id="linear0"
       gradientUnits="userSpaceOnUse"
       x1="0.0000017332"
       y1="0"
       x2="0.999997"
       y2="0"
       gradientTransform="matrix(0,-173.0899,173.16437,0,149.49951,424.5273)"><stop
         offset="0"
         style="stop-color:rgb(58.03833%,68.234253%,27.842712%);stop-opacity:1;"
         id="stop12" /><stop
         offset="0.015625"
         style="stop-color:rgb(58.140564%,68.240356%,27.854919%);stop-opacity:1;"
         id="stop13" /><stop
         offset="0.03125"
         style="stop-color:rgb(58.343506%,68.252563%,27.879333%);stop-opacity:1;"
         id="stop14" /><stop
         offset="0.046875"
         style="stop-color:rgb(58.547974%,68.264771%,27.903748%);stop-opacity:1;"
         id="stop15" /><stop
         offset="0.0625"
         style="stop-color:rgb(58.750916%,68.276978%,27.928162%);stop-opacity:1;"
         id="stop16" /><stop
         offset="0.078125"
         style="stop-color:rgb(58.955383%,68.29071%,27.952576%);stop-opacity:1;"
         id="stop17" /><stop
         offset="0.09375"
         style="stop-color:rgb(59.158325%,68.302917%,27.978516%);stop-opacity:1;"
         id="stop18" /><stop
         offset="0.109375"
         style="stop-color:rgb(59.361267%,68.315125%,28.00293%);stop-opacity:1;"
         id="stop19" /><stop
         offset="0.125"
         style="stop-color:rgb(59.565735%,68.327332%,28.027344%);stop-opacity:1;"
         id="stop20" /><stop
         offset="0.140625"
         style="stop-color:rgb(59.768677%,68.339539%,28.051758%);stop-opacity:1;"
         id="stop21" /><stop
         offset="0.15625"
         style="stop-color:rgb(59.973145%,68.351746%,28.076172%);stop-opacity:1;"
         id="stop22" /><stop
         offset="0.171875"
         style="stop-color:rgb(60.176086%,68.363953%,28.102112%);stop-opacity:1;"
         id="stop23" /><stop
         offset="0.1875"
         style="stop-color:rgb(60.380554%,68.37616%,28.126526%);stop-opacity:1;"
         id="stop24" /><stop
         offset="0.203125"
         style="stop-color:rgb(60.583496%,68.388367%,28.15094%);stop-opacity:1;"
         id="stop25" /><stop
         offset="0.21875"
         style="stop-color:rgb(60.787964%,68.400574%,28.175354%);stop-opacity:1;"
         id="stop26" /><stop
         offset="0.234375"
         style="stop-color:rgb(60.990906%,68.412781%,28.199768%);stop-opacity:1;"
         id="stop27" /><stop
         offset="0.25"
         style="stop-color:rgb(61.195374%,68.426514%,28.224182%);stop-opacity:1;"
         id="stop28" /><stop
         offset="0.265625"
         style="stop-color:rgb(61.398315%,68.438721%,28.250122%);stop-opacity:1;"
         id="stop29" /><stop
         offset="0.28125"
         style="stop-color:rgb(61.602783%,68.450928%,28.274536%);stop-opacity:1;"
         id="stop30" /><stop
         offset="0.296875"
         style="stop-color:rgb(61.805725%,68.463135%,28.29895%);stop-opacity:1;"
         id="stop31" /><stop
         offset="0.3125"
         style="stop-color:rgb(62.010193%,68.475342%,28.323364%);stop-opacity:1;"
         id="stop32" /><stop
         offset="0.328125"
         style="stop-color:rgb(62.213135%,68.487549%,28.347778%);stop-opacity:1;"
         id="stop33" /><stop
         offset="0.34375"
         style="stop-color:rgb(62.417603%,68.499756%,28.373718%);stop-opacity:1;"
         id="stop34" /><stop
         offset="0.359375"
         style="stop-color:rgb(62.620544%,68.511963%,28.398132%);stop-opacity:1;"
         id="stop35" /><stop
         offset="0.375"
         style="stop-color:rgb(62.825012%,68.52417%,28.422546%);stop-opacity:1;"
         id="stop36" /><stop
         offset="0.390625"
         style="stop-color:rgb(63.027954%,68.536377%,28.44696%);stop-opacity:1;"
         id="stop37" /><stop
         offset="0.40625"
         style="stop-color:rgb(63.232422%,68.548584%,28.471375%);stop-opacity:1;"
         id="stop38" /><stop
         offset="0.421875"
         style="stop-color:rgb(63.435364%,68.562317%,28.495789%);stop-opacity:1;"
         id="stop39" /><stop
         offset="0.4375"
         style="stop-color:rgb(63.639832%,68.574524%,28.521729%);stop-opacity:1;"
         id="stop40" /><stop
         offset="0.453125"
         style="stop-color:rgb(63.842773%,68.586731%,28.546143%);stop-opacity:1;"
         id="stop41" /><stop
         offset="0.46875"
         style="stop-color:rgb(64.047241%,68.598938%,28.570557%);stop-opacity:1;"
         id="stop42" /><stop
         offset="0.484375"
         style="stop-color:rgb(64.250183%,68.611145%,28.594971%);stop-opacity:1;"
         id="stop43" /><stop
         offset="0.5"
         style="stop-color:rgb(64.454651%,68.623352%,28.619385%);stop-opacity:1;"
         id="stop44" /><stop
         offset="0.515625"
         style="stop-color:rgb(64.657593%,68.635559%,28.645325%);stop-opacity:1;"
         id="stop45" /><stop
         offset="0.53125"
         style="stop-color:rgb(64.862061%,68.647766%,28.669739%);stop-opacity:1;"
         id="stop46" /><stop
         offset="0.546875"
         style="stop-color:rgb(65.065002%,68.659973%,28.694153%);stop-opacity:1;"
         id="stop47" /><stop
         offset="0.5625"
         style="stop-color:rgb(65.26947%,68.67218%,28.718567%);stop-opacity:1;"
         id="stop48" /><stop
         offset="0.578125"
         style="stop-color:rgb(65.472412%,68.684387%,28.742981%);stop-opacity:1;"
         id="stop49" /><stop
         offset="0.59375"
         style="stop-color:rgb(65.67688%,68.69812%,28.767395%);stop-opacity:1;"
         id="stop50" /><stop
         offset="0.609375"
         style="stop-color:rgb(65.879822%,68.710327%,28.793335%);stop-opacity:1;"
         id="stop51" /><stop
         offset="0.625"
         style="stop-color:rgb(66.08429%,68.722534%,28.817749%);stop-opacity:1;"
         id="stop52" /><stop
         offset="0.640625"
         style="stop-color:rgb(66.287231%,68.734741%,28.842163%);stop-opacity:1;"
         id="stop53" /><stop
         offset="0.65625"
         style="stop-color:rgb(66.491699%,68.746948%,28.866577%);stop-opacity:1;"
         id="stop54" /><stop
         offset="0.671875"
         style="stop-color:rgb(66.694641%,68.759155%,28.890991%);stop-opacity:1;"
         id="stop55" /><stop
         offset="0.6875"
         style="stop-color:rgb(66.899109%,68.771362%,28.916931%);stop-opacity:1;"
         id="stop56" /><stop
         offset="0.703125"
         style="stop-color:rgb(67.102051%,68.783569%,28.941345%);stop-opacity:1;"
         id="stop57" /><stop
         offset="0.71875"
         style="stop-color:rgb(67.304993%,68.795776%,28.965759%);stop-opacity:1;"
         id="stop58" /><stop
         offset="0.734375"
         style="stop-color:rgb(67.50946%,68.807983%,28.990173%);stop-opacity:1;"
         id="stop59" /><stop
         offset="0.75"
         style="stop-color:rgb(67.712402%,68.82019%,29.014587%);stop-opacity:1;"
         id="stop60" /><stop
         offset="0.765625"
         style="stop-color:rgb(67.91687%,68.833923%,29.039001%);stop-opacity:1;"
         id="stop61" /><stop
         offset="0.78125"
         style="stop-color:rgb(68.119812%,68.84613%,29.064941%);stop-opacity:1;"
         id="stop62" /><stop
         offset="0.796875"
         style="stop-color:rgb(68.32428%,68.858337%,29.089355%);stop-opacity:1;"
         id="stop63" /><stop
         offset="0.8125"
         style="stop-color:rgb(68.527222%,68.870544%,29.11377%);stop-opacity:1;"
         id="stop64" /><stop
         offset="0.828125"
         style="stop-color:rgb(68.731689%,68.882751%,29.138184%);stop-opacity:1;"
         id="stop65" /><stop
         offset="0.84375"
         style="stop-color:rgb(68.934631%,68.894958%,29.162598%);stop-opacity:1;"
         id="stop66" /><stop
         offset="0.859375"
         style="stop-color:rgb(69.139099%,68.907166%,29.188538%);stop-opacity:1;"
         id="stop67" /><stop
         offset="0.875"
         style="stop-color:rgb(69.342041%,68.919373%,29.212952%);stop-opacity:1;"
         id="stop68" /><stop
         offset="0.890625"
         style="stop-color:rgb(69.546509%,68.93158%,29.237366%);stop-opacity:1;"
         id="stop69" /><stop
         offset="0.90625"
         style="stop-color:rgb(69.749451%,68.943787%,29.26178%);stop-opacity:1;"
         id="stop70" /><stop
         offset="0.921875"
         style="stop-color:rgb(69.953918%,68.955994%,29.286194%);stop-opacity:1;"
         id="stop71" /><stop
         offset="0.9375"
         style="stop-color:rgb(70.15686%,68.968201%,29.310608%);stop-opacity:1;"
         id="stop72" /><stop
         offset="0.953125"
         style="stop-color:rgb(70.361328%,68.981934%,29.336548%);stop-opacity:1;"
         id="stop73" /><stop
         offset="0.96875"
         style="stop-color:rgb(70.56427%,68.994141%,29.360962%);stop-opacity:1;"
         id="stop74" /><stop
         offset="1"
         style="stop-color:rgb(70.822144%,69.009399%,29.391479%);stop-opacity:1;"
         id="stop75" /></linearGradient><clipPath
       id="clip13"><path
         d="M 78 448 L 221 448 L 221 518 L 78 518 Z M 78 448 "
         id="path75" /></clipPath><clipPath
       id="clip14"><path
         d="M 214.410156 448.453125 L 204.375 451.519531 C 199.507812 453.011719 196.058594 457.34375 195.699219 462.417969 L 194.941406 468.441406 L 191.058594 464.644531 C 189.355469 462.980469 187.070312 462.050781 184.6875 462.050781 L 161.765625 462.050781 C 153.171875 460.984375 150.167969 450.996094 128.59375 450.996094 C 107.015625 450.996094 106.476562 462.050781 106.476562 462.050781 L 95.417969 462.050781 C 84.359375 462.050781 84.359375 473.105469 84.359375 473.105469 L 84.359375 478.523438 L 81.484375 478.523438 L 81.484375 463.484375 C 81.484375 462.691406 80.839844 462.050781 80.046875 462.050781 C 79.253906 462.050781 78.609375 462.691406 78.609375 463.484375 L 78.609375 504.828125 C 78.609375 505.621094 79.253906 506.265625 80.046875 506.265625 C 80.839844 506.265625 81.484375 505.621094 81.484375 504.828125 L 81.484375 489.789062 L 84.359375 489.789062 L 84.359375 495.210938 C 84.359375 495.210938 84.359375 506.265625 95.417969 506.265625 C 100.117188 506.265625 105.289062 506.34375 110.765625 506.410156 C 108.308594 506.972656 106.476562 509.164062 106.476562 511.789062 C 106.476562 514.84375 108.949219 517.316406 112.003906 517.316406 C 115.058594 517.316406 117.53125 514.84375 117.53125 511.789062 C 117.53125 509.207031 115.757812 507.042969 113.359375 506.4375 C 159.304688 506.929688 224.527344 505.570312 220.183594 450.996094 C 220.160156 450.710938 219.953125 450.359375 219.65625 449.988281 C 218.726562 448.84375 217.328125 448.230469 215.894531 448.230469 C 215.398438 448.230469 214.898438 448.300781 214.410156 448.453125 "
         id="path76" /></clipPath><linearGradient
       id="linear1"
       gradientUnits="userSpaceOnUse"
       x1="-0.0000168152"
       y1="0"
       x2="1.029192"
       y2="0"
       gradientTransform="matrix(141.77688,0,0,141.71591,78.611384,482.77333)"><stop
         offset="0"
         style="stop-color:rgb(70.979309%,69.018555%,29.411316%);stop-opacity:1;"
         id="stop76" /><stop
         offset="0.015625"
         style="stop-color:rgb(70.875549%,69.012451%,29.397583%);stop-opacity:1;"
         id="stop77" /><stop
         offset="0.03125"
         style="stop-color:rgb(70.66803%,69.000244%,29.373169%);stop-opacity:1;"
         id="stop78" /><stop
         offset="0.046875"
         style="stop-color:rgb(70.458984%,68.986511%,29.347229%);stop-opacity:1;"
         id="stop79" /><stop
         offset="0.0625"
         style="stop-color:rgb(70.251465%,68.974304%,29.322815%);stop-opacity:1;"
         id="stop80" /><stop
         offset="0.078125"
         style="stop-color:rgb(70.042419%,68.962097%,29.296875%);stop-opacity:1;"
         id="stop81" /><stop
         offset="0.09375"
         style="stop-color:rgb(69.8349%,68.94989%,29.272461%);stop-opacity:1;"
         id="stop82" /><stop
         offset="0.109375"
         style="stop-color:rgb(69.62738%,68.936157%,29.246521%);stop-opacity:1;"
         id="stop83" /><stop
         offset="0.125"
         style="stop-color:rgb(69.418335%,68.92395%,29.222107%);stop-opacity:1;"
         id="stop84" /><stop
         offset="0.140625"
         style="stop-color:rgb(69.210815%,68.911743%,29.196167%);stop-opacity:1;"
         id="stop85" /><stop
         offset="0.15625"
         style="stop-color:rgb(69.00177%,68.899536%,29.171753%);stop-opacity:1;"
         id="stop86" /><stop
         offset="0.171875"
         style="stop-color:rgb(68.79425%,68.885803%,29.145813%);stop-opacity:1;"
         id="stop87" /><stop
         offset="0.1875"
         style="stop-color:rgb(68.586731%,68.873596%,29.119873%);stop-opacity:1;"
         id="stop88" /><stop
         offset="0.203125"
         style="stop-color:rgb(68.377686%,68.861389%,29.095459%);stop-opacity:1;"
         id="stop89" /><stop
         offset="0.21875"
         style="stop-color:rgb(68.170166%,68.847656%,29.069519%);stop-opacity:1;"
         id="stop90" /><stop
         offset="0.234375"
         style="stop-color:rgb(67.962646%,68.835449%,29.045105%);stop-opacity:1;"
         id="stop91" /><stop
         offset="0.25"
         style="stop-color:rgb(67.753601%,68.823242%,29.019165%);stop-opacity:1;"
         id="stop92" /><stop
         offset="0.265625"
         style="stop-color:rgb(67.546082%,68.811035%,28.994751%);stop-opacity:1;"
         id="stop93" /><stop
         offset="0.28125"
         style="stop-color:rgb(67.337036%,68.797302%,28.968811%);stop-opacity:1;"
         id="stop94" /><stop
         offset="0.296875"
         style="stop-color:rgb(67.129517%,68.785095%,28.944397%);stop-opacity:1;"
         id="stop95" /><stop
         offset="0.3125"
         style="stop-color:rgb(66.921997%,68.772888%,28.918457%);stop-opacity:1;"
         id="stop96" /><stop
         offset="0.328125"
         style="stop-color:rgb(66.712952%,68.760681%,28.894043%);stop-opacity:1;"
         id="stop97" /><stop
         offset="0.34375"
         style="stop-color:rgb(66.505432%,68.746948%,28.868103%);stop-opacity:1;"
         id="stop98" /><stop
         offset="0.359375"
         style="stop-color:rgb(66.296387%,68.734741%,28.843689%);stop-opacity:1;"
         id="stop99" /><stop
         offset="0.375"
         style="stop-color:rgb(66.088867%,68.722534%,28.817749%);stop-opacity:1;"
         id="stop100" /><stop
         offset="0.390625"
         style="stop-color:rgb(65.881348%,68.710327%,28.793335%);stop-opacity:1;"
         id="stop101" /><stop
         offset="0.40625"
         style="stop-color:rgb(65.672302%,68.696594%,28.767395%);stop-opacity:1;"
         id="stop102" /><stop
         offset="0.421875"
         style="stop-color:rgb(65.464783%,68.684387%,28.741455%);stop-opacity:1;"
         id="stop103" /><stop
         offset="0.4375"
         style="stop-color:rgb(65.255737%,68.67218%,28.717041%);stop-opacity:1;"
         id="stop104" /><stop
         offset="0.453125"
         style="stop-color:rgb(65.048218%,68.658447%,28.691101%);stop-opacity:1;"
         id="stop105" /><stop
         offset="0.46875"
         style="stop-color:rgb(64.840698%,68.64624%,28.666687%);stop-opacity:1;"
         id="stop106" /><stop
         offset="0.484375"
         style="stop-color:rgb(64.631653%,68.634033%,28.640747%);stop-opacity:1;"
         id="stop107" /><stop
         offset="0.5"
         style="stop-color:rgb(64.424133%,68.621826%,28.616333%);stop-opacity:1;"
         id="stop108" /><stop
         offset="0.515625"
         style="stop-color:rgb(64.216614%,68.608093%,28.590393%);stop-opacity:1;"
         id="stop109" /><stop
         offset="0.53125"
         style="stop-color:rgb(64.007568%,68.595886%,28.565979%);stop-opacity:1;"
         id="stop110" /><stop
         offset="0.546875"
         style="stop-color:rgb(63.800049%,68.583679%,28.540039%);stop-opacity:1;"
         id="stop111" /><stop
         offset="0.5625"
         style="stop-color:rgb(63.591003%,68.571472%,28.515625%);stop-opacity:1;"
         id="stop112" /><stop
         offset="0.578125"
         style="stop-color:rgb(63.383484%,68.557739%,28.489685%);stop-opacity:1;"
         id="stop113" /><stop
         offset="0.59375"
         style="stop-color:rgb(63.175964%,68.545532%,28.465271%);stop-opacity:1;"
         id="stop114" /><stop
         offset="0.609375"
         style="stop-color:rgb(62.966919%,68.533325%,28.439331%);stop-opacity:1;"
         id="stop115" /><stop
         offset="0.625"
         style="stop-color:rgb(62.759399%,68.521118%,28.414917%);stop-opacity:1;"
         id="stop116" /><stop
         offset="0.640625"
         style="stop-color:rgb(62.550354%,68.507385%,28.388977%);stop-opacity:1;"
         id="stop117" /><stop
         offset="0.65625"
         style="stop-color:rgb(62.342834%,68.495178%,28.363037%);stop-opacity:1;"
         id="stop118" /><stop
         offset="0.671875"
         style="stop-color:rgb(62.135315%,68.482971%,28.338623%);stop-opacity:1;"
         id="stop119" /><stop
         offset="0.6875"
         style="stop-color:rgb(61.92627%,68.469238%,28.312683%);stop-opacity:1;"
         id="stop120" /><stop
         offset="0.703125"
         style="stop-color:rgb(61.71875%,68.457031%,28.288269%);stop-opacity:1;"
         id="stop121" /><stop
         offset="0.71875"
         style="stop-color:rgb(61.509705%,68.444824%,28.262329%);stop-opacity:1;"
         id="stop122" /><stop
         offset="0.734375"
         style="stop-color:rgb(61.302185%,68.432617%,28.237915%);stop-opacity:1;"
         id="stop123" /><stop
         offset="0.75"
         style="stop-color:rgb(61.094666%,68.418884%,28.211975%);stop-opacity:1;"
         id="stop124" /><stop
         offset="0.765625"
         style="stop-color:rgb(60.88562%,68.406677%,28.187561%);stop-opacity:1;"
         id="stop125" /><stop
         offset="0.78125"
         style="stop-color:rgb(60.678101%,68.39447%,28.161621%);stop-opacity:1;"
         id="stop126" /><stop
         offset="0.796875"
         style="stop-color:rgb(60.470581%,68.382263%,28.137207%);stop-opacity:1;"
         id="stop127" /><stop
         offset="0.8125"
         style="stop-color:rgb(60.261536%,68.36853%,28.111267%);stop-opacity:1;"
         id="stop128" /><stop
         offset="0.828125"
         style="stop-color:rgb(60.054016%,68.356323%,28.086853%);stop-opacity:1;"
         id="stop129" /><stop
         offset="0.84375"
         style="stop-color:rgb(59.844971%,68.344116%,28.060913%);stop-opacity:1;"
         id="stop130" /><stop
         offset="0.859375"
         style="stop-color:rgb(59.637451%,68.331909%,28.036499%);stop-opacity:1;"
         id="stop131" /><stop
         offset="0.875"
         style="stop-color:rgb(59.429932%,68.318176%,28.010559%);stop-opacity:1;"
         id="stop132" /><stop
         offset="0.890625"
         style="stop-color:rgb(59.220886%,68.305969%,27.984619%);stop-opacity:1;"
         id="stop133" /><stop
         offset="0.90625"
         style="stop-color:rgb(59.013367%,68.293762%,27.960205%);stop-opacity:1;"
         id="stop134" /><stop
         offset="0.921875"
         style="stop-color:rgb(58.804321%,68.281555%,27.934265%);stop-opacity:1;"
         id="stop135" /><stop
         offset="0.9375"
         style="stop-color:rgb(58.596802%,68.267822%,27.909851%);stop-opacity:1;"
         id="stop136" /><stop
         offset="0.953125"
         style="stop-color:rgb(58.389282%,68.255615%,27.883911%);stop-opacity:1;"
         id="stop137" /><stop
         offset="0.96875"
         style="stop-color:rgb(58.180237%,68.243408%,27.859497%);stop-opacity:1;"
         id="stop138" /><stop
         offset="1"
         style="stop-color:rgb(58.056641%,68.235779%,27.844238%);stop-opacity:1;"
         id="stop139" /></linearGradient><clipPath
       id="clip15"><path
         d="M 104 170 L 197 170 L 197 192 L 104 192 Z M 104 170 "
         id="path139" /></clipPath><clipPath
       id="clip16"><path
         d="M 192.511719 147.457031 L 186.039062 149.4375 C 182.894531 150.398438 180.671875 153.195312 180.4375 156.472656 L 179.949219 160.355469 L 177.445312 157.90625 C 176.347656 156.832031 174.871094 156.230469 173.335938 156.230469 L 158.546875 156.230469 C 153 155.546875 151.0625 149.101562 137.144531 149.101562 C 123.222656 149.101562 122.875 156.230469 122.875 156.230469 L 115.738281 156.230469 C 108.605469 156.230469 108.605469 163.363281 108.605469 163.363281 L 108.605469 166.863281 L 106.753906 166.863281 L 106.753906 157.15625 C 106.753906 156.644531 106.335938 156.230469 105.824219 156.230469 C 105.3125 156.230469 104.898438 156.644531 104.898438 157.15625 L 104.898438 183.832031 C 104.898438 184.34375 105.3125 184.757812 105.824219 184.757812 C 106.335938 184.757812 106.75 184.34375 106.753906 183.832031 L 106.753906 174.128906 L 108.605469 174.128906 L 108.605469 177.625 C 108.605469 177.625 108.605469 184.757812 115.738281 184.757812 C 118.773438 184.757812 122.109375 184.808594 125.644531 184.851562 C 124.058594 185.214844 122.875 186.628906 122.875 188.324219 C 122.875 190.292969 124.472656 191.886719 126.441406 191.886719 C 128.410156 191.886719 130.007812 190.292969 130.007812 188.324219 C 130.007812 186.65625 128.863281 185.261719 127.316406 184.871094 C 156.957031 185.1875 199.039062 184.308594 196.234375 149.101562 C 196.21875 148.917969 196.085938 148.6875 195.894531 148.453125 C 195.296875 147.710938 194.394531 147.316406 193.464844 147.316406 C 193.148438 147.316406 192.824219 147.363281 192.511719 147.457031 "
         id="path140" /></clipPath><mask
       id="mask2"><g
         filter="url(#alpha)"
         id="g140"><rect
           x="0"
           y="0"
           width="299"
           height="772"
           style="fill:rgb(0%,0%,0%);fill-opacity:0.100006;stroke:none;"
           id="rect140" /></g></mask><clipPath
       id="clip18"><path
         d="M 0.105469 0.496094 L 92.3125 0.496094 L 92.3125 22 L 0.105469 22 Z M 0.105469 0.496094 "
         id="path141" /></clipPath><clipPath
       id="clip19"><path
         d="M 88.511719 -22.542969 L 82.039062 -20.5625 C 78.894531 -19.601562 76.671875 -16.804688 76.4375 -13.527344 L 75.949219 -9.644531 L 73.445312 -12.09375 C 72.347656 -13.167969 70.871094 -13.769531 69.335938 -13.769531 L 54.546875 -13.769531 C 49 -14.453125 47.0625 -20.898438 33.144531 -20.898438 C 19.222656 -20.898438 18.875 -13.769531 18.875 -13.769531 L 11.738281 -13.769531 C 4.605469 -13.769531 4.605469 -6.636719 4.605469 -6.636719 L 4.605469 -3.136719 L 2.753906 -3.136719 L 2.753906 -12.84375 C 2.753906 -13.355469 2.335938 -13.769531 1.824219 -13.769531 C 1.3125 -13.769531 0.898438 -13.355469 0.898438 -12.84375 L 0.898438 13.832031 C 0.898438 14.34375 1.3125 14.757812 1.824219 14.757812 C 2.335938 14.757812 2.75 14.34375 2.753906 13.832031 L 2.753906 4.128906 L 4.605469 4.128906 L 4.605469 7.625 C 4.605469 7.625 4.605469 14.757812 11.738281 14.757812 C 14.773438 14.757812 18.109375 14.808594 21.644531 14.851562 C 20.058594 15.214844 18.875 16.628906 18.875 18.324219 C 18.875 20.292969 20.472656 21.886719 22.441406 21.886719 C 24.410156 21.886719 26.007812 20.292969 26.007812 18.324219 C 26.007812 16.65625 24.863281 15.261719 23.316406 14.871094 C 52.957031 15.1875 95.039062 14.308594 92.234375 -20.898438 C 92.21875 -21.082031 92.085938 -21.3125 91.894531 -21.546875 C 91.296875 -22.289062 90.394531 -22.683594 89.464844 -22.683594 C 89.148438 -22.683594 88.824219 -22.636719 88.511719 -22.542969 "
         id="path142" /></clipPath><clipPath
       id="clip17"><rect
         x="0"
         y="0"
         width="93"
         height="22"
         id="rect142" /></clipPath><g
       id="surface4653"
       clip-path="url(#clip17)"><g
         clip-path="url(#clip18)"
         clip-rule="nonzero"
         id="g144"><g
           clip-path="url(#clip19)"
           clip-rule="nonzero"
           id="g143"><path
             style=" stroke:none;fill-rule:nonzero;fill:rgb(0%,0%,0%);fill-opacity:1;"
             d="M 0.105469 0.496094 L 92.3125 0.496094 L 92.3125 24.003906 L 0.105469 24.003906 Z M 0.105469 0.496094 "
             id="path143" /></g></g></g><clipPath
       clipPathUnits="userSpaceOnUse"
       id="clipPath3116"><ellipse
         style="fill:#bcd755;fill-opacity:1;stroke:none;stroke-width:0.414491;stroke-opacity:0.986582"
         id="ellipse3118"
         cx="-766.63269"
         cy="652.22864"
         rx="439.31668"
         ry="438.72519" /></clipPath><clipPath
       clipPathUnits="userSpaceOnUse"
       id="clipPath3120"><ellipse
         style="fill:#bcd755;fill-opacity:1;stroke:none;stroke-width:0.414491;stroke-opacity:0.986582"
         id="ellipse3122"
         cx="-766.63269"
         cy="652.22864"
         rx="439.31668"
         ry="438.72519" /></clipPath><clipPath
       clipPathUnits="userSpaceOnUse"
       id="clipPath3124"><ellipse
         style="fill:#bcd755;fill-opacity:1;stroke:none;stroke-width:0.414491;stroke-opacity:0.986582"
         id="ellipse3126"
         cx="-766.63269"
         cy="652.22864"
         rx="439.31668"
         ry="438.72519" /></clipPath><clipPath
       clipPathUnits="userSpaceOnUse"
       id="clipPath3128"><ellipse
         style="fill:#bcd755;fill-opacity:1;stroke:none;stroke-width:0.414491;stroke-opacity:0.986582"
         id="ellipse3130"
         cx="-766.63269"
         cy="652.22864"
         rx="439.31668"
         ry="438.72519" /></clipPath><clipPath
       clipPathUnits="userSpaceOnUse"
       id="clipPath3132"><ellipse
         style="fill:#bcd755;fill-opacity:1;stroke:none;stroke-width:0.0916144;stroke-opacity:0.986582"
         id="ellipse3134"
         cx="149.21948"
         cy="640.07391"
         rx="97.101448"
         ry="96.970711" /></clipPath><clipPath
       clipPathUnits="userSpaceOnUse"
       id="clipPath3136"><ellipse
         style="fill:#bcd755;fill-opacity:1;stroke:none;stroke-width:0.414491;stroke-opacity:0.986582"
         id="ellipse3138"
         cx="-766.63269"
         cy="652.22864"
         rx="439.31668"
         ry="438.72519" /></clipPath><clipPath
       clipPathUnits="userSpaceOnUse"
       id="clipPath3140"><ellipse
         style="fill:#bcd755;fill-opacity:1;stroke:none;stroke-width:0.414491;stroke-opacity:0.986582"
         id="ellipse3142"
         cx="-766.63269"
         cy="652.22864"
         rx="439.31668"
         ry="438.72519" /></clipPath><clipPath
       clipPathUnits="userSpaceOnUse"
       id="clipPath3144"><ellipse
         style="fill:#bcd755;fill-opacity:1;stroke:none;stroke-width:0.414491;stroke-opacity:0.986582"
         id="ellipse3146"
         cx="-766.63269"
         cy="652.22864"
         rx="439.31668"
         ry="438.72519" /></clipPath><clipPath
       clipPathUnits="userSpaceOnUse"
       id="clipPath3148"><ellipse
         style="fill:#bcd755;fill-opacity:1;stroke:none;stroke-width:0.414491;stroke-opacity:0.986582"
         id="ellipse3150"
         cx="-766.63269"
         cy="652.22864"
         rx="439.31668"
         ry="438.72519" /></clipPath><clipPath
       clipPathUnits="userSpaceOnUse"
       id="clipPath3152"><ellipse
         style="fill:#bcd755;fill-opacity:1;stroke:none;stroke-width:0.414491;stroke-opacity:0.986582"
         id="ellipse3154"
         cx="-766.63269"
         cy="652.22864"
         rx="439.31668"
         ry="438.72519" /></clipPath><clipPath
       clipPathUnits="userSpaceOnUse"
       id="clipPath3156"><ellipse
         style="fill:#bcd755;fill-opacity:1;stroke:none;stroke-width:0.414491;stroke-opacity:0.986582"
         id="ellipse3158"
         cx="-766.63269"
         cy="652.22864"
         rx="439.31668"
         ry="438.72519" /></clipPath><clipPath
       clipPathUnits="userSpaceOnUse"
       id="clipPath3160"><ellipse
         style="fill:#bcd755;fill-opacity:1;stroke:none;stroke-width:0.414491;stroke-opacity:0.986582"
         id="ellipse3162"
         cx="-766.63269"
         cy="652.22864"
         rx="439.31668"
         ry="438.72519" /></clipPath><clipPath
       clipPathUnits="userSpaceOnUse"
       id="clipPath3164"><ellipse
         style="fill:#bcd755;fill-opacity:1;stroke:none;stroke-width:0.414491;stroke-opacity:0.986582"
         id="ellipse3166"
         cx="-766.63269"
         cy="652.22864"
         rx="439.31668"
         ry="438.72519" /></clipPath><clipPath
       clipPathUnits="userSpaceOnUse"
       id="clipPath3168"><ellipse
         style="fill:#bcd755;fill-opacity:1;stroke:none;stroke-width:0.414491;stroke-opacity:0.986582"
         id="ellipse3170"
         cx="-766.63269"
         cy="652.22864"
         rx="439.31668"
         ry="438.72519" /></clipPath><clipPath
       clipPathUnits="userSpaceOnUse"
       id="clipPath3172"><ellipse
         style="fill:#bcd755;fill-opacity:1;stroke:none;stroke-width:0.414491;stroke-opacity:0.986582"
         id="ellipse3174"
         cx="-766.63269"
         cy="652.22864"
         rx="439.31668"
         ry="438.72519" /></clipPath></defs><g
     inkscape:label="Capa 1"
     inkscape:groupmode="layer"
     id="layer1"><g
       id="g661"
       transform="matrix(2.3291281,0,0,2.3291281,2810.0731,-493.27525)"><rect
         style="fill:#99ae47;fill-opacity:1;stroke-width:0.395813;stroke-opacity:0.986582"
         id="rect923"
         width="879.14447"
         height="878.43207"
         x="-1206.0988"
         y="213.27115"
         clip-path="url(#clipPath3172)" /><path
         style="fill:#eeebbd;fill-opacity:1;fill-rule:nonzero;stroke:none;stroke-width:4.52431"
         d="m -915.03665,807.54114 c 0,14.27962 -11.57589,25.87315 -25.87315,25.87315 -14.29771,0 -25.89125,-11.59353 -25.89125,-25.87315 0,-14.29771 11.59354,-25.89125 25.89125,-25.89125 14.29726,0 25.87315,11.59354 25.87315,25.89125"
         id="path154"
         clip-path="url(#clipPath3168)" /><path
         style="fill:#e6f0c2;fill-opacity:1;fill-rule:nonzero;stroke:none;stroke-width:4.52431"
         d="m -1018.5831,574.64524 c -51.7644,0 -51.7644,51.76444 -51.7644,51.76444 v 103.49351 c 0,0 0,51.76435 51.7644,51.76435 z m 0,0"
         id="path155"
         clip-path="url(#clipPath3164)" /><path
         style="fill:#abbf62;fill-opacity:1;stroke:none;stroke-width:0.397592;stroke-opacity:0.986582"
         d="m -167.88272,1045.5173 -410.35636,-452.91609 -172.60515,541.15769 511.696,5.4123 z"
         id="path2633"
         clip-path="url(#clipPath3120)" /><path
         style="fill:#fdfdff;fill-opacity:1;fill-rule:nonzero;stroke:none;stroke-width:4.52431"
         d="m -1018.5831,574.64524 h 417.98573 c 11.13387,0 21.8438,4.36523 29.81427,12.15907 l 18.16826,17.77912 3.55203,-28.20624 c 1.69662,-23.77025 17.8321,-44.04127 40.63053,-51.02214 l 46.97497,-14.3682 c 8.88981,-2.72164 18.7157,-0.0362 24.56563,7.19292 1.37855,1.73195 2.35037,3.37559 2.45669,4.71872 23.20472,291.32279 -377.03758,258.76905 -584.14811,258.76905 z m 0,0"
         id="path156"
         clip-path="url(#clipPath3160)" /><path
         style="fill:#e6f0c2;fill-opacity:1;fill-rule:nonzero;stroke:none;stroke-width:4.52431"
         d="m -707.92613,574.64524 c -40.24144,-4.96615 -54.30932,-51.74675 -155.32848,-51.74675 -101.01916,0 -103.54644,51.74675 -103.54644,51.74675 z m 0,0"
         id="path157"
         clip-path="url(#clipPath3156)" /><path
         style="fill:#d9e3b8;fill-opacity:1;fill-rule:nonzero;stroke:none;stroke-width:4.52431"
         d="m -1083.8145,651.78819 h 13.467 v 52.73644 h -13.467 z m 0,0"
         id="path158"
         clip-path="url(#clipPath3152)" /><path
         style="fill:#eeebbd;fill-opacity:1;fill-rule:nonzero;stroke:none;stroke-width:4.52431"
         d="m -1090.5304,781.64989 c 3.7113,0 6.7335,-3.00459 6.7335,-6.71574 V 581.37868 c 0,-3.71134 -3.0222,-6.73344 -6.7335,-6.73344 -3.7113,0 -6.7331,3.0221 -6.7331,6.73344 v 193.55547 c 0,3.71115 3.0218,6.71574 6.7331,6.71574"
         id="path159"
         clip-path="url(#clipPath3148)" /><path
         style="fill:#eeebbd;fill-opacity:1;fill-rule:nonzero;stroke:none;stroke-width:4.52431"
         d="M -733.81692,729.90319 H -940.9098 c -14.29771,0 -25.89125,-11.57589 -25.89125,-25.87338 0,-14.29753 11.59354,-25.87338 25.89125,-25.87338 h 207.09288 c 14.29726,0 25.89079,11.57585 25.89079,25.87338 0,14.29749 -11.59353,25.87338 -25.89079,25.87338"
         id="path160"
         clip-path="url(#clipPath3144)" /><path
         style="fill:#e6f0c2;fill-opacity:1;fill-rule:nonzero;stroke:none;stroke-width:4.52431"
         d="m -1097.2635,581.37868 h 13.449 v 15.51696 h -13.449 z m 0,0"
         id="path161"
         clip-path="url(#clipPath3140)" /><path
         style="fill:#e6f0c2;fill-opacity:1;fill-rule:nonzero;stroke:none;stroke-width:4.52431"
         d="m -1097.2635,759.41718 h 13.449 v 15.51697 h -13.449 z m 0,0"
         id="path162"
         clip-path="url(#clipPath3136)" /><g
         clip-path="url(#clipPath3132)"
         clip-rule="nonzero"
         id="g163"
         transform="matrix(4.5243062,0,0,4.5243062,-1441.7473,-2243.6618)"><g
           clip-path="url(#clip7)"
           clip-rule="nonzero"
           id="g162"><use
             xlink:href="#surface4650"
             transform="translate(76,645)"
             mask="url(#mask1)"
             id="use162" /></g></g><path
         style="fill:#bfce87;fill-opacity:1;stroke-width:0.397592;stroke-opacity:0.986582;stroke:none"
         d="m -1254.9555,1136.7196 246.9385,-360.86121 148.53032,356.93711 z"
         id="path2413"
         clip-path="url(#clipPath3128)" /><path
         style="fill:#bcd755;fill-opacity:1;stroke:none;stroke-width:0.397592;stroke-opacity:0.986582"
         d="M -526.11761,1168.6886 -755.31884,818.05123 c 0,0 -342.09366,366.07927 -322.70206,366.07927 19.3915,0 551.90329,-15.4419 551.90329,-15.4419 z"
         id="path2631"
         sodipodi:nodetypes="ccsc"
         clip-path="url(#clipPath3124)" /><path
         style="fill:#5e6c2c;fill-opacity:1;stroke:none;stroke-width:0.397592;stroke-opacity:0.986582"
         d="m -1065.9745,1258.7824 166.26109,-379.65838 168.12867,341.50988 z"
         id="path2905"
         clip-path="url(#clipPath3116)" /></g></g></svg>
